<svg id="logo" class="logo" version="1.1" xmlns="http://www.w3.org/2000/svg" width="680" height="190"
  xmlns:parametric="https://parametric-svg.github.io/v0.2"
  >

  <defs>
    <ref param="stretchDown" parametric:default="0" />
    <clipPath id="svg-shadow-clip"><rect x="518"
      parametric:width="91 + stretchOut"
                 width="91"
      parametric:height="59 + 2 * stretchDown"
                 height="59"
      parametric:y="68 - stretchDown"
                 y="68"
      /></clipPath>
    </defs>

  <g id="parametric" fill="#4d4d4d">
    <path d="m 97.139529,125.51113 q -12.525624,0 -18.264455,-9.38174 l -0.349321,0 0.149709,4.19184 q 0.199612,3.69282 0.199612,8.08427 l 0,20.65979 -4.940386,0 0,-78.796646 4.191842,0 0.948155,7.734946 0.299417,0 q 5.589123,-8.782907 17.865232,-8.782907 10.978636,0 16.717466,7.235918 5.78873,7.186015 5.78873,20.959211 0,13.373968 -6.08815,20.759598 -6.03825,7.33572 -16.517851,7.33572 z m -0.09981,-4.39145 q 8.333781,0 12.874951,-6.18796 4.59106,-6.18795 4.59106,-17.316297 0,-23.903481 -17.2664,-23.903481 -9.481547,0 -13.922904,5.239803 -4.441356,5.1899 -4.441356,16.96698 l 0,1.596892 q 0,12.725233 4.241745,18.164653 4.291647,5.43941 13.922904,5.43941 z" />
    <path d="m 162.97211,124.51308 -1.24757,-8.5833 -0.39923,0 q -4.09203,5.2398 -8.43358,7.43553 -4.29165,2.14582 -10.18019,2.14582 -7.98446,0 -12.42582,-4.09203 -4.44136,-4.09204 -4.44136,-11.32796 0,-7.93455 6.58718,-12.326008 6.63709,-4.391454 19.16271,-4.640968 l 10.3299,-0.299418 0,-3.593007 q 0,-7.734947 -3.14388,-11.677275 -3.14389,-3.942327 -10.13029,-3.942327 -7.53534,0 -15.6196,4.191842 l -1.84641,-4.291648 q 8.93262,-4.191842 17.66562,-4.191842 8.93262,0 13.32407,4.640968 4.44136,4.640968 4.44136,14.471836 l 0,36.079787 -3.64291,0 z m -19.96116,-3.4932 q 8.68311,0 13.67339,-4.94039 5.0402,-4.99029 5.0402,-13.8231 l 0,-5.339607 -9.48155,0.399223 q -11.42776,0.548932 -16.31824,3.593004 -4.84058,2.99418 -4.84058,9.38175 0,5.09009 3.09397,7.93455 3.14389,2.79457 8.83281,2.79457 z" />
    <path d="m 196.74936,69.220683 q 3.4433,0 7.38563,0.69864 l -0.94816,4.740774 q -3.39339,-0.848349 -7.0363,-0.848349 -6.93651,0 -11.37786,5.88854 -4.44136,5.88854 -4.44136,14.871059 l 0,29.941733 -4.94038,0 0,-54.244436 4.19184,0 0.49903,9.780965 0.34932,0 q 3.34349,-5.988346 7.13611,-8.383685 3.79262,-2.445241 9.18213,-2.445241 z" />
    <path d="m 242.50952,124.51308 -1.24757,-8.5833 -0.39922,0 q -4.09204,5.2398 -8.43359,7.43553 -4.29165,2.14582 -10.18019,2.14582 -7.98446,0 -12.42582,-4.09203 -4.44135,-4.09204 -4.44135,-11.32796 0,-7.93455 6.58718,-12.326008 6.63708,-4.391454 19.1627,-4.640968 l 10.3299,-0.299418 0,-3.593007 q 0,-7.734947 -3.14388,-11.677275 -3.14388,-3.942327 -10.13029,-3.942327 -7.53533,0 -15.6196,4.191842 l -1.8464,-4.291648 q 8.93261,-4.191842 17.66562,-4.191842 8.93261,0 13.32407,4.640968 4.44135,4.640968 4.44135,14.471836 l 0,36.079787 -3.64291,0 z m -19.96115,-3.4932 q 8.6831,0 13.67339,-4.94039 5.04019,-4.99029 5.04019,-13.8231 l 0,-5.339607 -9.48155,0.399223 q -11.42776,0.548932 -16.31824,3.593004 -4.84058,2.99418 -4.84058,9.38175 0,5.09009 3.09398,7.93455 3.14388,2.79457 8.83281,2.79457 z" />
    <path d="m 323.39645,124.51308 0,-35.580758 q 0,-7.934559 -3.09398,-11.577469 -3.09398,-3.642911 -9.48154,-3.642911 -8.33379,0 -12.32602,4.591066 -3.99223,4.591065 -3.99223,14.421933 l 0,31.788139 -5.04019,0 0,-37.077845 q 0,-13.723293 -12.57552,-13.723293 -8.5334,0 -12.42582,4.990289 -3.89243,4.940385 -3.89243,15.869116 l 0,29.941733 -4.94038,0 0,-54.244436 4.09203,0 1.04796,7.435529 0.29942,0 q 2.24563,-4.042133 6.38757,-6.23786 4.14194,-2.24563 9.13223,-2.24563 12.82504,0 16.46795,9.631256 l 0.19961,0 q 2.64485,-4.640968 7.08621,-7.136112 4.49126,-2.495144 10.18019,-2.495144 8.88271,0 13.32407,4.740774 4.44135,4.740774 4.44135,15.07067 l 0,35.480953 -4.89048,0 z" />
    <path d="m 361.58012,125.51113 q -11.82698,0 -18.46407,-7.28582 -6.58718,-7.28582 -6.58718,-20.410275 0,-12.97475 6.38757,-20.759599 6.38757,-7.834753 17.2165,-7.834753 9.58135,0 15.12057,6.686986 5.53922,6.686987 5.53922,18.16465 l 0,3.99223 -39.07396,0 q 0.0998,11.178241 5.1899,17.066781 5.14,5.88855 14.67145,5.88855 4.64097,0 8.13417,-0.64874 3.54311,-0.64874 8.93262,-2.79456 l 0,4.49126 q -4.59107,1.99611 -8.48349,2.69475 -3.89243,0.74854 -8.5833,0.74854 z m -1.44718,-51.898993 q -7.83475,0 -12.57553,5.189899 -4.74077,5.139997 -5.53922,14.871059 l 33.53474,0 q 0,-9.431644 -4.09204,-14.72135 -4.09203,-5.339608 -11.32795,-5.339608 z" />
    <path d="m 405.31571,121.11968 q 4.69088,0 8.18408,-0.79845 l 0,3.99224 q -3.59301,1.19766 -8.28388,1.19766 -7.18602,0 -10.62932,-3.84252 -3.39339,-3.84252 -3.39339,-12.0765 l 0,-35.031819 -8.03437,0 0,-2.894367 8.03437,-2.245629 2.49514,-12.276109 2.54505,0 0,13.124458 15.91902,0 0,4.291647 -15.91902,0 0,34.333179 q 0,6.23786 2.19573,9.23204 2.19572,2.99417 6.88659,2.99417 z" />
    <path d="m 441.46521,69.220683 q 3.4433,0 7.38563,0.69864 l -0.94816,4.740774 q -3.39339,-0.848349 -7.0363,-0.848349 -6.9365,0 -11.37786,5.88854 -4.44136,5.88854 -4.44136,14.871059 l 0,29.941733 -4.94038,0 0,-54.244436 4.19184,0 0.49903,9.780965 0.34932,0 q 3.34349,-5.988346 7.13611,-8.383685 3.79262,-2.445241 9.18213,-2.445241 z" />
    <path d="m 460.58986,124.51308 -4.94039,0 0,-54.244436 4.94039,0 0,54.244436 z m -5.63903,-69.315107 q 0,-4.790677 3.14388,-4.790677 1.54699,0 2.39534,1.247572 0.89825,1.247572 0.89825,3.543105 0,2.24563 -0.89825,3.543105 -0.84835,1.297475 -2.39534,1.297475 -3.14388,0 -3.14388,-4.84058 z" />
    <path d="m 493.32224,125.51113 q -11.62737,0 -18.21455,-7.33572 -6.58718,-7.33572 -6.58718,-20.460181 0,-13.473778 6.8367,-20.959211 6.83669,-7.535335 18.71358,-7.535335 7.0363,0 13.47378,2.445241 l -1.34738,4.391454 q -7.03631,-2.345436 -12.22621,-2.345436 -9.98057,0 -15.12057,6.187958 -5.14,6.138054 -5.14,17.715523 0,10.978637 5.14,17.216497 5.14,6.18796 14.37203,6.18796 7.38563,0 13.72329,-2.64486 l 0,4.59107 q -5.1899,2.54504 -13.62349,2.54504 z" />
    </g>

  <rect id="rectangle" x="518"
    parametric:width="91 + stretchOut"
               width="91"
    parametric:fill="fill"
               fill="#9eab05"
    parametric:height="59 + 2 * stretchDown"
               height="59"
    parametric:y="68 - stretchDown"
               y="68"
    />

  <path id="dimension" fill="none" stroke="#4d4d4d" stroke-linecap="square"
    parametric:d=" 'm 518.5,' + (51 - stretchDown)
                 + 'l 0,5'
                 + 'm 0,-2.5'
                 + 'l ' + (90 + stretchOut) + ',0'
                 + 'm 0,-2.5'
                 + 'l 0,5'
                 "
               d="  m 518.5,51
                    l 0,5
                    m 0,-2.5
                    l 90,0
                    m 0,-2.5
                    l 0,5
                 "
    />

  <g id="svg-shadow" clip-path="url(#svg-shadow-clip)">
    <g id="shadow" fill-opacity=".2">
      <path d="m 535.13281,92.038798 -0.1582,6.451172 6.89062,6.88671 -0.34179,2.00782 -8.5293,0.86132 L 10579.41,10154.644 l 64.981,0 L 580.19336,90.405986 l -13.51758,1.789062 -2.61133,-2.681641 -5.9414,7.824219 -7.77344,-7.824219 -1.74414,4.404297 -3.42188,-3.457031 z"/>
      <path d="m 528.67773,106.25168 -2.33593,2.73243 10045.6972,10045.65989 5.03,0 z"/>
      </g>
    <g id="svg" fill="#fff">
      <path d="m 525.90167,107.59667 c 0,-0.59596 0.13342,-1.04515 0.40027,-1.34757 0.27574,-0.31132 0.66711,-0.46697 1.17411,-0.46698 0.5159,10e-6 0.91617,0.15566 1.2008,0.46698 0.29353,0.30242 0.44029,0.75161 0.4403,1.34757 -1e-5,0.57816 -0.14677,1.02289 -0.4403,1.33422 -0.29353,0.31131 -0.6938,0.46697 -1.2008,0.46697 -0.45363,0 -0.83167,-0.13787 -1.13409,-0.41361 -0.29353,-0.28463 -0.44029,-0.74717 -0.44029,-1.38758" style="line-height:125%;-inkscape-font-specification:'Open Sans';text-align:end" font-size="21.661"/>
      <path d="m 545.4824,103.71407 c -10e-6,1.7345 -0.6271,3.0954 -1.88125,4.08273 -1.25419,0.98732 -2.98422,1.48098 -5.19013,1.48098 -2.20591,0 -4.01156,-0.34245 -5.41694,-1.02735 l 0,-3.01535 c 0.88948,0.41806 1.83232,0.74718 2.82855,0.98734 1.00511,0.24015 1.93907,0.36023 2.80187,0.36023 1.26305,0 2.19256,-0.24016 2.78853,-0.72048 0.60483,-0.48032 0.90725,-1.12519 0.90727,-1.93462 -2e-5,-0.72936 -0.27576,-1.34756 -0.82722,-1.85457 -0.55149,-0.507 -1.69003,-1.10739 -3.41561,-1.8012 -1.77897,-0.72047 -3.03314,-1.54324 -3.76251,-2.46831 -0.72938,-0.92504 -1.09407,-2.0369 -1.09406,-3.33556 -10e-6,-1.62773 0.57816,-2.90858 1.73449,-3.84255 1.15632,-0.93394 2.70846,-1.40092 4.65643,-1.40094 1.8679,2e-5 3.72692,0.40918 5.57705,1.22749 l -1.01401,2.60173 c -1.7345,-0.72936 -3.2822,-1.09405 -4.64309,-1.09406 -1.0318,1e-5 -1.81455,0.22683 -2.34824,0.68045 -0.53368,0.44475 -0.80053,1.03626 -0.80052,1.77452 -10e-6,0.50701 0.10672,0.94286 0.32021,1.30753 0.21346,0.35581 0.56482,0.69381 1.05404,1.01402 0.48921,0.32022 1.36978,0.74272 2.64175,1.2675 1.43207,0.59596 2.48165,1.15189 3.14876,1.66778 0.6671,0.51591 1.15632,1.09852 1.46765,1.74783 0.31131,0.64932 0.46697,1.41429 0.46698,2.29486"/>
      <path d="m 560.76413,89.50461 3.30888,0 -6.83122,19.50633 -3.36224,0 -6.80454,-19.50633 3.28219,0 4.06938,12.12808 c 0.21347,0.57816 0.44028,1.32533 0.68045,2.24149 0.24016,0.90728 0.39581,1.58329 0.46698,2.02801 0.11568,-0.67599 0.29352,-1.45874 0.53369,-2.34822 0.24015,-0.88948 0.43583,-1.54769 0.58706,-1.97466 l 4.06937,-12.0747"/>
      <path d="m 573.18396,98.43055 7.17811,0 0,9.7932 c -1.17413,0.38248 -2.30377,0.65377 -3.38892,0.81387 -1.07629,0.16011 -2.24151,0.24016 -3.49566,0.24016 -2.9531,0 -5.23016,-0.87169 -6.83122,-2.61508 -1.60108,-1.75227 -2.40161,-4.22058 -2.4016,-7.40493 -1e-5,-3.13985 0.90281,-5.59482 2.70846,-7.36491 1.80564,-1.77894 4.29174,-2.66842 7.4583,-2.66844 2.0369,2e-5 3.96708,0.39139 5.79053,1.17412 l -1.12074,2.6551 c -1.5833,-0.72936 -3.16658,-1.09405 -4.74984,-1.09406 -2.0814,1e-5 -3.72694,0.65378 -4.93662,1.9613 -1.2097,1.30755 -1.81455,3.09541 -1.81455,5.36357 0,2.38382 0.54258,4.19836 1.62776,5.44364 1.09405,1.23637 2.66399,1.85456 4.7098,1.85456 1.03179,0 2.13475,-0.12897 3.30887,-0.38693 l 0,-5.03001 -4.04268,0 0,-2.73516"/>
      </g>
    </g>

  </svg>
