<?xml version="1.0" encoding="UTF-8" standalone="no"?>
<svg id="logo" xmlns:rdf="http://www.w3.org/1999/02/22-rdf-syntax-ns#" xmlns="http://www.w3.org/2000/svg" viewBox="0 0 680 190" xmlns:parametric="https://parametric-svg.github.io/v0.2" class="logo" version="1.1" xmlns:cc="http://creativecommons.org/ns#" xmlns:xlink="http://www.w3.org/1999/xlink" xmlns:dc="http://purl.org/dc/elements/1.1/">
 <g fill="#4d4d4d">
  <path d="m87.813 122.22q-10.927 0-15.933-8.1842h-0.30473l0.1306 3.6568q0.17413 3.2214 0.17413 7.0523v18.023h-4.3097v-68.738h3.6567l0.82712 6.7476h0.2612q4.8757-7.6618 15.585-7.6618 9.5772 0 14.583 6.3122 5.0498 6.2687 5.0498 18.284 0 11.667-5.311 18.11-5.2675 6.3993-14.409 6.3993zm-0.08707-3.8309q7.27 0 11.231-5.398 4.005-5.3981 4.005-15.106 0-20.852-15.062-20.852-8.2712 0-12.146 4.5709-3.8744 4.5274-3.8744 14.801v1.393q0 11.101 3.7003 15.846 3.7438 4.7451 12.146 4.7451z"/>
  <path d="m147.02 121.35-1.0883-7.4876h-0.34826q-3.5697 4.5709-7.357 6.4864-3.7438 1.8719-8.8807 1.8719-6.9652 0-10.84-3.5697-3.8744-3.5697-3.8744-9.8819 0-6.9217 5.7463-10.753 5.7898-3.8309 16.717-4.0485l9.0113-0.2612v-3.1344q0-6.7476-2.7426-10.187-2.7426-3.4391-8.8372-3.4391-6.5734 0-13.626 3.6567l-1.6107-3.7438q7.7924-3.6567 15.411-3.6567 7.7924 0 11.623 4.0485 3.8744 4.0485 3.8744 12.624v31.474h-3.1779zm-17.41-3.05q7.5747 0 11.928-4.3097 4.3968-4.3533 4.3968-12.059v-4.658l-8.2712 0.34826q-9.969 0.47886-14.235 3.1344-4.2227 2.612-4.2227 8.1842 0 4.4403 2.699 6.9217 2.7426 2.4378 7.7053 2.4378z"/>
  <path d="m178.26 73.116q3.0038 0 6.4428 0.60946l-0.82712 4.1356q-2.9602-0.74006-6.1381-0.74006-6.051 0-9.9255 5.1369-3.8744 5.1369-3.8744 12.973v26.12h-4.3097v-47.32h3.6568l0.43533 8.5324h0.30473q2.9167-5.2239 6.2252-7.3135 3.3085-2.1331 8.01-2.1331z"/>
  <path d="m219.96 121.35-1.0883-7.4876h-0.34826q-3.5697 4.5709-7.357 6.4864-3.7438 1.8719-8.8807 1.8719-6.9652 0-10.84-3.5697-3.8744-3.5697-3.8744-9.8819 0-6.9217 5.7463-10.753 5.7898-3.8309 16.717-4.0485l9.0113-0.2612v-3.1344q0-6.7476-2.7426-10.187-2.7426-3.4391-8.8371-3.4391-6.5734 0-13.626 3.6567l-1.6107-3.7438q7.7924-3.6567 15.411-3.6567 7.7924 0 11.623 4.0485 3.8744 4.0485 3.8744 12.624v31.474h-3.1779zm-17.41-3.05q7.5747 0 11.928-4.3097 4.3968-4.3533 4.3968-12.059v-4.658l-8.2712 0.34826q-9.969 0.47886-14.235 3.1344-4.2227 2.612-4.2227 8.1842 0 4.4403 2.699 6.9217 2.7426 2.4378 7.7053 2.4378z"/>
  <path d="m292.3 121.35v-31.039q0-6.9217-2.699-10.1-2.699-3.1779-8.2712-3.1779-7.27 0-10.753 4.005-3.4826 4.005-3.4826 12.581v27.73h-4.3968v-32.345q0-11.971-10.97-11.971-7.4441 0-10.84 4.3533-3.3956 4.3097-3.3956 13.843v26.12h-4.3097v-47.32h3.5697l0.91419 6.4864h0.2612q1.959-3.5262 5.5722-5.4416 3.6132-1.959 7.9665-1.959 11.188 0 14.366 8.4018h0.17413q2.3072-4.0485 6.1816-6.2252 3.918-2.1766 8.8807-2.1766 7.7488 0 11.623 4.1356 3.8744 4.1356 3.8744 13.147v30.952h-4.2662z"/>
  <path d="m327.39 122.22q-10.317 0-16.107-6.3558-5.7463-6.3558-5.7463-17.805 0-11.319 5.5722-18.11 5.5722-6.8346 15.019-6.8346 8.3583 0 13.19 5.8334 4.8321 5.8334 4.8321 15.846v3.4826h-34.086q0.0871 9.7513 4.5274 14.888 4.4839 5.1369 12.799 5.1369 4.0485 0 7.0958-0.56593 3.0908-0.56592 7.7924-2.4378v3.9179q-4.005 1.7413-7.4006 2.3508-3.3956 0.65299-7.4876 0.65299zm-1.2624-45.274q-6.8346 0-10.97 4.5274-4.1356 4.4839-4.8321 12.973h29.254q0-8.2277-3.5697-12.842-3.5697-4.658-9.8819-4.658z"/>
  <path d="m367.32 118.39q4.0921 0 7.1394-0.69652v3.4826q-3.1344 1.0448-7.2264 1.0448-6.2687 0-9.2725-3.352-2.9602-3.352-2.9602-10.535v-30.56h-7.0088v-2.5249l7.0088-1.959 2.1766-10.709h2.2202v11.449h13.887v3.7438h-13.887v29.951q0 5.4416 1.9154 8.0536t6.0075 2.612z"/>
  <path d="m400.63 73.116q3.0038 0 6.4428 0.60946l-0.82712 4.1356q-2.9602-0.74006-6.1381-0.74006-6.051 0-9.9255 5.1369-3.8744 5.1369-3.8744 12.973v26.12h-4.3097v-47.32h3.6568l0.43532 8.5324h0.30473q2.9167-5.2239 6.2252-7.3135 3.3085-2.1331 8.01-2.1331z"/>
  <path d="m419.1 121.35h-4.3097v-47.32h4.3097v47.32zm-4.9192-60.467q0-4.1791 2.7426-4.1791 1.3495 0 2.0896 1.0883 0.78359 1.0883 0.78359 3.0908 0 1.959-0.78359 3.0908-0.74005 1.1319-2.0896 1.1319-2.7426 0-2.7426-4.2227z"/>
  <path d="m449.43 122.22q-10.143 0-15.889-6.3993-5.7463-6.3993-5.7463-17.848 0-11.754 5.964-18.284 5.964-6.5734 16.325-6.5734 6.1381 0 11.754 2.1331l-1.1754 3.8309q-6.1381-2.046-10.666-2.046-8.7065 0-13.19 5.3981-4.4839 5.3545-4.4839 15.454 0 9.5772 4.4839 15.019 4.4839 5.3981 12.537 5.3981 6.4428 0 11.972-2.3072v4.005q-4.5274 2.2202-11.884 2.2202z"/>
  <path d="m464.48 99.062v-3.5697h20.678v3.5697h-20.678z"/>
  <path d="m522.02 109.03q0 6.3558-4.8321 9.7949-4.8321 3.3956-13.713 3.3956-9.4901 0-15.062-2.9167v-4.658q7.1394 3.5697 15.062 3.5697 7.0088 0 10.622-2.3072 3.6568-2.3508 3.6568-6.2252 0-3.5697-2.9167-6.0075-2.8732-2.4378-9.4901-4.7886-7.0958-2.5684-9.969-4.3968-2.8732-1.8719-4.3533-4.1791-1.4366-2.3508-1.4366-5.7028 0-5.311 4.4403-8.4018 4.4839-3.0908 12.494-3.0908 7.6618 0 14.54 2.8732l-1.6107 3.9179q-6.9652-2.8732-12.929-2.8732-5.7898 0-9.1854 1.9154t-3.3956 5.311q0 3.7003 2.612 5.9205 2.6555 2.2202 10.317 4.9627 6.3993 2.3072 9.316 4.1791 2.9167 1.8284 4.3533 4.1791 1.4801 2.3508 1.4801 5.5287z"/>
  <path d="m546.16 121.35-18.284-47.32h4.4403l12.233 32.171q2.4378 6.1816 3.6568 10.796h0.26119q1.7848-5.9204 3.6568-10.883l12.233-32.084h4.4403l-18.284 47.32h-4.3533z"/>
  <path d="m612.43 74.03v3.0038l-9.7949 0.60946q3.918 4.8757 3.918 10.709 0 6.8346-4.5709 11.101-4.5274 4.2227-12.189 4.2227-3.2214 0-4.5274-0.26119-2.5684 1.3495-3.9179 3.1779t-1.3495 3.8744q0 2.2637 1.6978 3.3085 1.7413 1.0448 5.7898 1.0448h8.2712q7.7053 0 11.797 3.1344 4.0921 3.0908 4.0921 9.1854 0 7.4876-6.0946 11.536-6.051 4.0921-17.282 4.0921-8.9242 0-13.843-3.4391-4.8757-3.4391-4.8757-9.5772 0-4.8757 3.0038-8.0971 3.0473-3.2214 8.2277-4.3968-2.1331-0.91419-3.4391-2.5684-1.2624-1.6978-1.2624-3.8744 0-4.7451 6.051-8.3583-4.1356-1.6978-6.4428-5.311-2.3072-3.6567-2.3072-8.3583 0-7.0958 4.4839-11.362 4.5274-4.3097 12.189-4.3097 4.658 0 7.2264 0.91419h15.149zm-38.309 55.33q0 9.7513 14.496 9.7513 18.632 0 18.632-11.884 0-4.2662-2.9167-6.1816t-9.4466-1.9154h-7.7488q-13.016 0-13.016 10.23zm3.6132-40.572q0 5.4851 3.3085 8.5324 3.352 3.0038 8.9242 3.0038 5.9204 0 9.0548-3.0038 3.1779-3.0038 3.1779-8.7065 0-6.051-3.265-9.0548-3.2214-3.0473-9.0548-3.0473-5.6592 0-8.9242 3.265-3.2214 3.2214-3.2214 9.0113z"/>
 </g>
 <path id="a" d="m53.666 131.29-36.192-33.703 36.192-33.7" stroke="#9eab05" stroke-width="3" fill="none"/>
 <use xlink:href="#a" transform="matrix(-1,0,0,1,680,0)" height="100%" width="100%" y="0" x="0"/>
</svg>
