<?xml version="1.0" encoding="UTF-8" standalone="no"?>
<svg
   xmlns:parametric="https://parametric-svg.github.io/v0.2"
   xmlns:dc="http://purl.org/dc/elements/1.1/"
   xmlns:cc="http://creativecommons.org/ns#"
   xmlns:rdf="http://www.w3.org/1999/02/22-rdf-syntax-ns#"
   xmlns:svg="http://www.w3.org/2000/svg"
   xmlns="http://www.w3.org/2000/svg"
   xmlns:sodipodi="http://sodipodi.sourceforge.net/DTD/sodipodi-0.dtd"
   xmlns:inkscape="http://www.inkscape.org/namespaces/inkscape"
   id="logo"
   class="logo"
   version="1.1"
   width="91"
   height="91"
   inkscape:version="0.91+devel+osxmenu r12922"
   sodipodi:docname="square.svg"
   viewBox="0 0 91 91">
  <metadata
     id="metadata4187">
    <rdf:RDF>
      <cc:Work
         rdf:about="">
        <dc:format>image/svg+xml</dc:format>
        <dc:type
           rdf:resource="http://purl.org/dc/dcmitype/StillImage" />
        <dc:title></dc:title>
      </cc:Work>
    </rdf:RDF>
  </metadata>
  <sodipodi:namedview
     pagecolor="#ffffff"
     bordercolor="#666666"
     borderopacity="1"
     objecttolerance="10"
     gridtolerance="10"
     guidetolerance="10"
     inkscape:pageopacity="0"
     inkscape:pageshadow="2"
     inkscape:window-width="1058"
     inkscape:window-height="540"
     id="namedview4185"
     inkscape:document-units="px"
     showgrid="true"
     fit-margin-top="0"
     fit-margin-left="0"
     fit-margin-right="0"
     fit-margin-bottom="0"
     inkscape:zoom="2.5705411"
     inkscape:cx="22.528932"
     inkscape:cy="48.660796"
     inkscape:window-x="0"
     inkscape:window-y="23"
     inkscape:window-maximized="0"
     inkscape:current-layer="logo">
    <inkscape:grid
       type="xygrid"
       id="grid4189"
       originx="0"
       originy="10" />
  </sodipodi:namedview>
  <defs
     id="defs4142">
    <ref
       param="stretchDown"
       parametric:default="0" />
    <clipPath
       id="svg-shadow-clip">
      <rect
         x="518"
         parametric:width="91 + stretchOut"
         width="91"
         parametric:height="59 + 2 * stretchDown"
         height="59"
         parametric:y="68 - stretchDown"
         y="68"
         id="rect4145" />
    </clipPath>
  </defs>
  <rect
     id="rectangle"
     x="0"
     parametric:width="91 + stretchOut"
     width="91"
     parametric:fill="fill"
     parametric:height="59 + 2 * stretchDown"
     height="59"
     parametric:y="68 - stretchDown"
     y="22"
     style="fill:#9eab05" />
  <path
     id="dimension"
     parametric:d=" 'm 518.5,' + (51 - stretchDown)                  + 'l 0,5'                  + 'm 0,-2.5'                  + 'l ' + (90 + stretchOut) + ',0'                  + 'm 0,-2.5'                  + 'l 0,5'                  "
     d="m 0.5,5 0,5 m 0,-2.5 90,0 m 0,-2.5 0,5"
     inkscape:connector-curvature="0"
     style="fill:none;stroke:#4d4d4d;stroke-linecap:square" />
  <g
     id="svg-shadow"
     clip-path="url(#svg-shadow-clip)"
     transform="translate(-518,-46)">
    <g
       id="shadow"
       style="fill-opacity:0.2">
      <path
         d="m 535.13281,92.038798 -0.1582,6.451172 6.89062,6.88671 -0.34179,2.00782 -8.5293,0.86132 L 10579.41,10154.644 l 64.981,0 L 580.19336,90.405986 l -13.51758,1.789062 -2.61133,-2.681641 -5.9414,7.824219 -7.77344,-7.824219 -1.74414,4.404297 -3.42188,-3.457031 z"
         id="path4172"
         inkscape:connector-curvature="0" />
      <path
         d="m 528.67773,106.25168 -2.33593,2.73243 10045.6972,10045.65989 5.03,0 z"
         id="path4174"
         inkscape:connector-curvature="0" />
    </g>
    <g
       id="svg"
       style="fill:#ffffff">
      <path
         d="m 525.90167,107.59667 c 0,-0.59596 0.13342,-1.04515 0.40027,-1.34757 0.27574,-0.31132 0.66711,-0.46697 1.17411,-0.46698 0.5159,10e-6 0.91617,0.15566 1.2008,0.46698 0.29353,0.30242 0.44029,0.75161 0.4403,1.34757 -1e-5,0.57816 -0.14677,1.02289 -0.4403,1.33422 -0.29353,0.31131 -0.6938,0.46697 -1.2008,0.46697 -0.45363,0 -0.83167,-0.13787 -1.13409,-0.41361 -0.29353,-0.28463 -0.44029,-0.74717 -0.44029,-1.38758"
         style="font-size:21.6609993px;line-height:125%;-inkscape-font-specification:'Open Sans';text-align:end"
         font-size="21.661"
         id="path4177"
         inkscape:connector-curvature="0" />
      <path
         d="m 545.4824,103.71407 c -10e-6,1.7345 -0.6271,3.0954 -1.88125,4.08273 -1.25419,0.98732 -2.98422,1.48098 -5.19013,1.48098 -2.20591,0 -4.01156,-0.34245 -5.41694,-1.02735 l 0,-3.01535 c 0.88948,0.41806 1.83232,0.74718 2.82855,0.98734 1.00511,0.24015 1.93907,0.36023 2.80187,0.36023 1.26305,0 2.19256,-0.24016 2.78853,-0.72048 0.60483,-0.48032 0.90725,-1.12519 0.90727,-1.93462 -2e-5,-0.72936 -0.27576,-1.34756 -0.82722,-1.85457 -0.55149,-0.507 -1.69003,-1.10739 -3.41561,-1.8012 -1.77897,-0.72047 -3.03314,-1.54324 -3.76251,-2.46831 -0.72938,-0.92504 -1.09407,-2.0369 -1.09406,-3.33556 -10e-6,-1.62773 0.57816,-2.90858 1.73449,-3.84255 1.15632,-0.93394 2.70846,-1.40092 4.65643,-1.40094 1.8679,2e-5 3.72692,0.40918 5.57705,1.22749 l -1.01401,2.60173 c -1.7345,-0.72936 -3.2822,-1.09405 -4.64309,-1.09406 -1.0318,1e-5 -1.81455,0.22683 -2.34824,0.68045 -0.53368,0.44475 -0.80053,1.03626 -0.80052,1.77452 -10e-6,0.50701 0.10672,0.94286 0.32021,1.30753 0.21346,0.35581 0.56482,0.69381 1.05404,1.01402 0.48921,0.32022 1.36978,0.74272 2.64175,1.2675 1.43207,0.59596 2.48165,1.15189 3.14876,1.66778 0.6671,0.51591 1.15632,1.09852 1.46765,1.74783 0.31131,0.64932 0.46697,1.41429 0.46698,2.29486"
         id="path4179"
         inkscape:connector-curvature="0" />
      <path
         d="m 560.76413,89.50461 3.30888,0 -6.83122,19.50633 -3.36224,0 -6.80454,-19.50633 3.28219,0 4.06938,12.12808 c 0.21347,0.57816 0.44028,1.32533 0.68045,2.24149 0.24016,0.90728 0.39581,1.58329 0.46698,2.02801 0.11568,-0.67599 0.29352,-1.45874 0.53369,-2.34822 0.24015,-0.88948 0.43583,-1.54769 0.58706,-1.97466 l 4.06937,-12.0747"
         id="path4181"
         inkscape:connector-curvature="0" />
      <path
         d="m 573.18396,98.43055 7.17811,0 0,9.7932 c -1.17413,0.38248 -2.30377,0.65377 -3.38892,0.81387 -1.07629,0.16011 -2.24151,0.24016 -3.49566,0.24016 -2.9531,0 -5.23016,-0.87169 -6.83122,-2.61508 -1.60108,-1.75227 -2.40161,-4.22058 -2.4016,-7.40493 -1e-5,-3.13985 0.90281,-5.59482 2.70846,-7.36491 1.80564,-1.77894 4.29174,-2.66842 7.4583,-2.66844 2.0369,2e-5 3.96708,0.39139 5.79053,1.17412 l -1.12074,2.6551 c -1.5833,-0.72936 -3.16658,-1.09405 -4.74984,-1.09406 -2.0814,1e-5 -3.72694,0.65378 -4.93662,1.9613 -1.2097,1.30755 -1.81455,3.09541 -1.81455,5.36357 0,2.38382 0.54258,4.19836 1.62776,5.44364 1.09405,1.23637 2.66399,1.85456 4.7098,1.85456 1.03179,0 2.13475,-0.12897 3.30887,-0.38693 l 0,-5.03001 -4.04268,0 0,-2.73516"
         id="path4183"
         inkscape:connector-curvature="0" />
    </g>
  </g>
</svg>
